<?xml version="1.0" standalone="no"?>
<!DOCTYPE svg PUBLIC "-//W3C//DTD SVG 20010904//EN"
 "http://www.w3.org/TR/2001/REC-SVG-20010904/DTD/svg10.dtd">
<svg version="1.0" xmlns="http://www.w3.org/2000/svg"
 width="1280.000000pt" height="1280.000000pt" viewBox="0 0 1280.000000 1280.000000"
 preserveAspectRatio="xMidYMid meet">
<metadata>
Created by potrace 1.14, written by Peter Selinger 2001-2017
</metadata>
<g transform="translate(0.000000,1280.000000) scale(0.100000,-0.100000)"
fill="#000000" stroke="none">
<path d="M6125 12794 c-27 -2 -120 -8 -205 -14 -1064 -74 -2115 -431 -3025
-1027 -373 -245 -653 -472 -979 -792 -657 -648 -1142 -1381 -1478 -2236 -227
-576 -357 -1149 -420 -1845 -16 -179 -16 -776 0 -960 69 -787 238 -1456 538
-2127 325 -727 748 -1339 1323 -1914 394 -393 781 -697 1221 -961 872 -522
1769 -808 2820 -900 314 -27 867 -15 1235 28 1930 224 3665 1335 4701 3010
471 763 784 1656 893 2554 37 298 45 450 45 790 1 338 -8 483 -45 790 -153
1277 -713 2510 -1579 3473 -378 422 -800 784 -1265 1090 -893 585 -1883 927
-2960 1023 -160 14 -710 26 -820 18z m3825 -3399 l0 -495 -3620 0 -3620 0 0
495 0 495 3620 0 3620 0 0 -495z m-34 -925 c7 -25 44 -184 83 -355 39 -170
138 -604 221 -964 l150 -653 0 -479 0 -479 -230 0 -230 0 0 -1315 0 -1315
-440 0 -440 0 0 1315 0 1315 -910 0 -910 0 0 -1315 0 -1315 -2210 0 -2210 0 0
1315 0 1315 -257 2 -258 3 -3 459 -2 459 175 821 c96 452 193 909 215 1016 23
107 43 201 45 208 4 10 729 12 3602 10 l3597 -3 12 -45z"/>
<path d="M3600 4660 l0 -880 1360 0 1360 0 0 880 0 880 -1360 0 -1360 0 0
-880z"/>
</g>
</svg>
